<?xml version="1.0"?>
<svg xmlns="http://www.w3.org/2000/svg" height="512px" viewBox="0 -31 471.99706 471" width="512px"><g><path d="m416.714844 70.21875 11.199218-11.441406c-4.753906-4.632813-9.878906-8.875-15.320312-12.679688l-9.175781 13.113282c4.722656 3.300781 9.171875 6.984374 13.296875 11.007812zm0 0" data-original="#000000" class="active-path" data-old_color="#000000" fill="#FF6600"/><path d="m232 24.5v16h112c15.421875-.039062 30.648438 3.390625 44.5625 10.039062l6.878906-14.457031c-16.0625-7.667969-33.640625-11.625-51.441406-11.582031zm0 0" data-original="#000000" class="active-path" data-old_color="#000000" fill="#FF6600"/><path d="m432 146.234375v-1.734375c-.054688-48.578125-39.421875-87.945312-88-88h-173.109375c-8.421875-6.34375-18.078125-10.851562-28.34375-13.242188l.496094-3.472656c19.039062-3.402344 32.917969-19.945312 32.957031-39.285156h-16c0 13.253906-10.742188 24-24 24h-96c-13.253906 0-24-10.746094-24-24h-16c.0429688 19.339844 13.921875 35.882812 32.960938 39.285156l.496093 3.472656c-11.480469 2.515626-22.15625 7.851563-31.054687 15.527344-2.75 2.695313-3.191406 6.96875-1.046875 10.167969 9.664062 13.015625 23.648437 22.160156 39.445312 25.800781l7.265625 50.878906c.566406 3.945313 3.949219 6.875 7.933594 6.867188h4.449219c-5.148438 8.65625-5.871094 19.25-1.941407 28.527344 3.929688 9.273437 12.042969 16.125 21.847657 18.445312 1.867187 23.738282 13.289062 45.699219 31.644531 60.859375v7.285157c0 19.40625 5.460938 38.417968 15.761719 54.867187l-7.71875 77.214844c-.226563 2.25.507812 4.488281 2.027343 6.164062 1.515626 1.679688 3.671876 2.636719 5.929688 2.636719h32c3.9375 0 7.292969-2.863281 7.90625-6.753906l15.246094-96.449219c2.332031 5.984375 5.214844 11.742187 8.609375 17.195313l-7.71875 77.207031c-.226563 2.25.507812 4.488281 2.027343 6.164062 1.515626 1.679688 3.671876 2.636719 5.929688 2.636719h32c3.9375 0 7.292969-2.863281 7.90625-6.753906l19.144531-121.246094h38c1.800781 14.894531 6.820313 29.222656 14.710938 41.984375l-7.71875 77.214844c-.226563 2.25.507812 4.488281 2.027343 6.164062 1.515626 1.679688 3.671876 2.636719 5.929688 2.636719h32c3.9375 0 7.292969-2.863281 7.90625-6.753906l15.246094-96.449219c2.332031 5.984375 5.214844 11.742187 8.609375 17.195313l-7.71875 77.207031c-.226563 2.25.507812 4.488281 2.027343 6.164062 1.515626 1.679688 3.671876 2.636719 5.929688 2.636719h32c3.9375 0 7.292969-2.863281 7.90625-6.753906l20.085938-127.199219c2.664062-16.90625 4.003906-33.996094 4-51.113281v-60.382813c11.800781 4.464844 20.527343 14.617188 23.175781 26.953125 2.648437 12.335938-1.148438 25.171875-10.078125 34.085938l-2.75 2.746094 11.308594 11.328124 2.753906-2.753906c13.519531-13.511718 18.753906-33.238281 13.707031-51.675781-5.042969-18.4375-19.589844-32.753906-38.109375-37.5zm-376.167969-59.457031c-.507812-3.542969-3.3125-6.320313-6.863281-6.789063-10.988281-1.496093-21.214844-6.449219-29.199219-14.144531 7.363281-4.269531 15.472657-7.09375 23.894531-8.320312 4.34375-.652344 7.347657-4.679688 6.738282-9.023438l-1.136719-8h77.550781l-1.214844 8c-.621093 4.335938 2.363282 8.367188 6.695313 9.039062 8.421875 1.226563 16.535156 4.050782 23.898437 8.320313-7.984374 7.695313-18.214843 12.648437-29.203124 14.144531-3.546876.472656-6.351563 3.246094-6.863282 6.789063l-7.0625 49.707031h-50.128906zm16.167969 81.722656c0-8.839844 7.164062-16 16-16 8.839844 0 16 7.160156 16 16 0 8.835938-7.160156 16-16 16-8.835938 0-16-7.164062-16-16zm64.84375 224 1.597656-16h17.257813l-2.53125 16zm21.382812-32h-18.183593l3.957031-39.203125c.1875-1.835937-.273438-3.683594-1.292969-5.222656-8.929687-13.445313-13.964843-29.101563-14.546875-45.230469 12.328125 6.332031 25.984375 9.640625 39.839844 9.65625h2.875zm42.617188 32 1.597656-16h17.25l-2.523437 16zm112 0 1.597656-16h17.257813l-2.53125 16zm21.382812-32h-18.183593l3.957031-39.203125c.183594-1.839844-.273438-3.6875-1.292969-5.230469-7.078125-10.714844-11.707031-22.859375-13.554687-35.566406h41.722656zm42.617188 32 1.597656-16h17.25l-2.523437 16zm39.15625-232v62.910156c0 16.277344-1.277344 32.53125-3.8125 48.609375l-13.96875 88.480469h-18.175781l3.957031-39.203125c.1875-1.84375-.273438-3.695313-1.300781-5.238281-9.582031-14.308594-14.695313-31.140625-14.699219-48.359375v-35.199219h-16v32h-98.398438l2.328126-14.753906-15.808594-2.496094-17.902344 113.25h-18.175781l3.957031-39.203125c.1875-1.84375-.273438-3.695313-1.300781-5.238281-9.582031-14.308594-14.695313-31.140625-14.699219-48.359375v-35.199219h-16v32h-8c-37.121094-.046875-68.136719-28.285156-71.652344-65.242188 9.621094-2.5 17.507813-9.382812 21.285156-18.582031 3.777344-9.195312 3.007813-19.632812-2.078124-28.175781h4.445312c3.980469 0 7.355469-2.925781 7.921875-6.867188l7.265625-50.878906c14.289062-3.324218 27.144531-11.121094 36.703125-22.253906h172.109375c39.75.042969 71.957031 32.253906 72 72zm0 0" data-original="#000000" class="active-path" data-old_color="#000000" fill="#FF6600"/><path d="m64 64.5h16v16h-16zm0 0" data-original="#000000" class="active-path" data-old_color="#000000" fill="#FF6600"/><path d="m96 64.5h16v16h-16zm0 0" data-original="#000000" class="active-path" data-old_color="#000000" fill="#FF6600"/></g> </svg>
