<?xml version="1.0"?>
<svg xmlns="http://www.w3.org/2000/svg" height="512px" version="1.1" viewBox="1 1 598.702 598.702" width="512px" class=""><g><g id="surface1">
<path d="M 558.429688 123.0625 C 559.71875 119.46875 558.828125 115.457031 556.140625 112.742188 L 486.257812 42.859375 C 483.542969 40.171875 479.53125 39.28125 475.933594 40.570312 C 467.65625 16.34375 444.90625 0.0429688 419.300781 0 L 179.699219 0 C 154.09375 0.0429688 131.34375 16.34375 123.0625 40.570312 C 119.46875 39.28125 115.457031 40.171875 112.742188 42.859375 L 42.859375 112.742188 C 40.171875 115.453125 39.28125 119.46875 40.570312 123.0625 C 16.34375 131.34375 0.0429688 154.09375 0 179.699219 L 0 419.300781 C 0.0429688 444.90625 16.34375 467.65625 40.570312 475.9375 C 39.28125 479.53125 40.171875 483.542969 42.859375 486.257812 L 112.742188 556.144531 C 115.410156 558.914062 119.476562 559.8125 123.0625 558.429688 C 131.34375 582.65625 154.09375 598.957031 179.699219 599 L 419.300781 599 C 444.90625 598.957031 467.65625 582.65625 475.9375 558.429688 C 479.523438 559.8125 483.589844 558.914062 486.257812 556.144531 L 556.144531 486.257812 C 558.828125 483.546875 559.71875 479.53125 558.429688 475.9375 C 582.65625 467.65625 598.957031 444.90625 599 419.300781 L 599 179.699219 C 598.957031 154.09375 582.65625 131.34375 558.429688 123.0625 Z M 534.96875 119.800781 L 458.445312 196.320312 C 443.941406 174.050781 424.945312 155.058594 402.679688 140.554688 L 479.199219 64.03125 Z M 468.726562 384.726562 C 496.003906 331.183594 496.003906 267.816406 468.726562 214.273438 L 520.042969 162.957031 C 572.078125 246.550781 572.078125 352.449219 520.042969 436.042969 Z M 299.5 489.183594 C 329.125 489.164062 358.324219 482.15625 384.726562 468.726562 L 436.042969 520.042969 C 352.449219 572.074219 246.550781 572.074219 162.957031 520.042969 L 214.273438 468.726562 C 240.675781 482.15625 269.878906 489.164062 299.5 489.183594 Z M 299.5 469.21875 C 205.769531 469.21875 129.785156 393.230469 129.785156 299.5 C 129.785156 205.769531 205.769531 129.785156 299.5 129.785156 C 393.230469 129.785156 469.21875 205.769531 469.21875 299.5 C 469.113281 393.1875 393.1875 469.113281 299.5 469.21875 Z M 78.957031 436.042969 C 26.925781 352.449219 26.925781 246.550781 78.957031 162.957031 L 130.273438 214.273438 C 103 267.820312 103 331.183594 130.273438 384.726562 Z M 299.5 109.816406 C 269.878906 109.835938 240.675781 116.84375 214.273438 130.273438 L 162.957031 78.957031 C 246.550781 26.925781 352.449219 26.925781 436.042969 78.957031 L 384.726562 130.273438 C 358.324219 116.84375 329.125 109.835938 299.5 109.816406 Z M 179.699219 19.96875 L 419.300781 19.96875 C 439.839844 20.027344 456.964844 35.695312 458.855469 56.148438 L 450.507812 64.492188 C 358.589844 5.125 240.410156 5.125 148.492188 64.492188 L 140.144531 56.148438 C 142.035156 35.695312 159.160156 20.027344 179.699219 19.96875 Z M 119.800781 64.03125 L 196.320312 140.554688 C 174.050781 155.058594 155.058594 174.054688 140.554688 196.320312 L 64.03125 119.800781 Z M 19.96875 419.300781 L 19.96875 179.699219 C 20.027344 159.160156 35.695312 142.035156 56.148438 140.144531 L 64.492188 148.492188 C 5.125 240.410156 5.125 358.589844 64.492188 450.507812 L 56.148438 458.855469 C 35.695312 456.964844 20.027344 439.839844 19.96875 419.300781 Z M 64.03125 479.199219 L 140.554688 402.679688 C 155.058594 424.949219 174.054688 443.941406 196.320312 458.445312 L 119.800781 534.96875 Z M 419.300781 579.035156 L 179.699219 579.035156 C 159.160156 578.972656 142.035156 563.304688 140.144531 542.855469 L 148.492188 534.507812 C 240.410156 593.875 358.589844 593.875 450.507812 534.507812 L 458.855469 542.855469 C 456.964844 563.304688 439.839844 578.972656 419.300781 579.035156 Z M 479.199219 534.96875 L 402.679688 458.445312 C 424.949219 443.941406 443.941406 424.945312 458.445312 402.679688 L 514.75 458.984375 L 534.96875 479.199219 Z M 579.035156 299.5 L 579.035156 419.300781 C 578.972656 439.839844 563.304688 456.964844 542.855469 458.855469 L 534.507812 450.507812 C 593.875 358.589844 593.875 240.410156 534.507812 148.492188 L 542.855469 140.144531 C 563.304688 142.035156 578.972656 159.160156 579.035156 179.699219 Z M 579.035156 299.5 " data-original="#000000" class="active-path" data-old_color="#000000" fill="#FF6600"/>
</g></g> </svg>
